Coordinates
version=1
nRows=22
nColumns=24
inDegrees=yes

Units are S.I. units (second, meters, Newtons, ...)
Angles are in degrees.

endheader
time	pelvis_tilt	pelvis_list	pelvis_rotation	pelvis_tx	pelvis_ty	pelvis_tz	hip_flexion_r	hip_adduction_r	hip_rotation_r	knee_angle_r	ankle_angle_r	subtalar_angle_r	mtp_angle_r	hip_flexion_l	hip_adduction_l	hip_rotation_l	knee_angle_l	ankle_angle_l	subtalar_angle_l	mtp_angle_l	lumbar_extension	lumbar_bending	lumbar_rotation
      9.82000000	     63.03965028	     -9.40600660	     -5.26718885	      0.41849574	      1.04852974	     -0.34803007	     14.98645215	      1.99451551	      9.63885845	    -27.27035399	      2.65259984	     41.44042919	      0.00000000	      0.66425476	    -20.01416707	      0.87059027	    -61.33192643	     23.01023284	     31.18797441	      0.00000000	      0.00000000	      0.00000000	      0.00000000
      9.83000000	     63.15963797	     -9.42799980	     -5.22866370	      0.41838392	      1.04860765	     -0.34804207	     14.88275029	      2.04892475	      9.61958458	    -26.95703117	      2.62149774	     41.37450497	      0.00000000	      0.53309557	    -20.02754237	      0.89259015	    -61.30877347	     23.01349266	     31.20274049	      0.00000000	      0.00000000	      0.00000000	      0.00000000
      9.84000000	     63.21737485	     -9.44080928	     -5.21135047	      0.41831699	      1.04866294	     -0.34804915	     14.84267598	      2.10549886	      9.61084062	    -26.66069469	      2.58715912	     41.32795096	      0.00000000	      0.45723752	    -20.03896105	      0.90000942	    -61.27462033	     23.01674041	     31.21105602	      0.00000000	      0.00000000	      0.00000000	      0.00000000
      9.85000000	     63.20348163	     -9.44415643	     -5.21290457	      0.41830421	      1.04867871	     -0.34800966	     14.88521185	      2.15980869	      9.61589114	    -26.39447220	      2.54916427	     41.30392740	      0.00000000	      0.45726521	    -20.04507526	      0.90017785	    -61.24621678	     23.01788482	     31.20940897	      0.00000000	      0.00000000	      0.00000000	      0.00000000
      9.86000000	     63.13138499	     -9.43801358	     -5.22547644	      0.41832518	      1.04864831	     -0.34795169	     15.00093321	      2.20589248	      9.63603471	    -26.15902565	      2.51045126	     41.30096938	      0.00000000	      0.53109368	    -20.04342451	      0.90294744	    -61.24253055	     23.01438173	     31.19551930	      0.00000000	      0.00000000	      0.00000000	      0.00000000
      9.87000000	     63.02788173	     -9.42166485	     -5.23999537	      0.41836744	      1.04854423	     -0.34794108	     15.15685813	      2.23919575	      9.67078385	    -25.94532095	      2.47572430	     41.31299673	      0.00000000	      0.65988136	    -20.03296278	      0.91606909	    -61.27928517	     23.00419702	     31.16913702	      0.00000000	      0.00000000	      0.00000000	      0.00000000
      9.88000000	     62.92310902	     -9.39600590	     -5.25031496	      0.41845373	      1.04832984	     -0.34799258	     15.30795743	      2.25932094	      9.71691630	    -25.74285881	      2.44948099	     41.33038914	      0.00000000	      0.81704103	    -20.01335353	      0.94172061	    -61.36162308	     22.98697108	     31.13268777	      0.00000000	      0.00000000	      0.00000000	      0.00000000
      9.89000000	     62.84356809	     -9.36630404	     -5.25509926	      0.41859616	      1.04806466	     -0.34801463	     15.41421503	      2.27154726	      9.76731545	    -25.54775168	      2.43456857	     41.34188597	      0.00000000	      0.97541578	    -19.98500275	      0.97570293	    -61.47773569	     22.96495909	     31.09145835	      0.00000000	      0.00000000	      0.00000000	      0.00000000
      9.90000000	     62.80673901	     -9.34134798	     -5.25602036	      0.41869772	      1.04796603	     -0.34789771	     15.45757077	      2.28578659	      9.81136898	    -25.36558935	      2.43181796	     41.33701088	      0.00000000	      1.10838865	    -19.95167173	      1.00982684	    -61.59845204	     22.94313795	     31.05297911	      0.00000000	      0.00000000	      0.00000000	      0.00000000
      9.91000000	     62.81443492	     -9.32844361	     -5.25361626	      0.41859612	      1.04818212	     -0.34770025	     15.44791409	      2.31189598	      9.83824365	    -25.20814231	      2.44058264	     41.30864858	      0.00000000	      1.18723802	    -19.92387088	      1.03607811	    -61.68628095	     22.92803678	     31.02546653	      0.00000000	      0.00000000	      0.00000000	      0.00000000
      9.92000000	     62.85065136	     -9.33005786	     -5.24581710	      0.41834638	      1.04845295	     -0.34763715	     15.41102664	      2.35293590	      9.84211683	    -25.08701469	      2.45948987	     41.25520335	      0.00000000	      1.18640207	    -19.91649728	      1.04953106	    -61.71154366	     22.92546453	     31.01563110	      0.00000000	      0.00000000	      0.00000000	      0.00000000
      9.93000000	     62.89503246	     -9.34608984	     -5.23281141	      0.41822274	      1.04841806	     -0.34777060	     15.36781156	      2.40379252	      9.82548915	    -25.00828654	      2.48687350	     41.18153604	      0.00000000	      1.10370837	    -19.93740877	      1.04806534	    -61.66696517	     22.93810065	     31.02657322	      0.00000000	      0.00000000	      0.00000000	      0.00000000
      9.94000000	     62.93838335	     -9.37469229	     -5.22092005	      0.41830822	      1.04820271	     -0.34790709	     15.32364457	      2.45769187	      9.79763724	    -24.97037937	      2.52090857	     41.09795054	      0.00000000	      0.97158098	    -19.97945417	      1.03118215	    -61.57136590	     22.96425540	     31.05659725	      0.00000000	      0.00000000	      0.00000000	      0.00000000
      9.95000000	     62.97860510	     -9.40929900	     -5.21748660	      0.41843710	      1.04814623	     -0.34789985	     15.27373958	      2.51055420	      9.76993572	    -24.96550560	      2.55977815	     41.01730519	      0.00000000	      0.83642590	    -20.02723805	      1.00079999	    -61.45988140	     22.99850080	     31.09954458	      0.00000000	      0.00000000	      0.00000000	      0.00000000
      9.96000000	     63.01144568	     -9.44074252	     -5.22431200	      0.41848900	      1.04828600	     -0.34780214	     15.21442797	      2.55867520	      9.75117113	    -24.98419174	      2.60204966	     40.95145122	      0.00000000	      0.73093805	    -20.06797099	      0.96232636	    -61.36696793	     23.03374773	     31.14661968	      0.00000000	      0.00000000	      0.00000000	      0.00000000
      9.97000000	     63.03220233	     -9.46300578	     -5.23779745	      0.41848210	      1.04844727	     -0.34771789	     15.14865234	      2.59661518	      9.74441334	    -25.02116221	      2.64712055	     40.90851188	      0.00000000	      0.66610716	    -20.09560856	      0.92358229	    -61.31212920	     23.06361472	     31.18892741	      0.00000000	      0.00000000	      0.00000000	      0.00000000
      9.98000000	     63.04034632	     -9.47484439	     -5.25268535	      0.41847488	      1.04852214	     -0.34768485	     15.08282692	      2.61922981	      9.74626242	    -25.07938006	      2.69555431	     40.89184291	      0.00000000	      0.63737189	    -20.10962995	      0.89188325	    -61.29528796	     23.08402032	     31.21974866	      0.00000000	      0.00000000	      0.00000000	      0.00000000
      9.99000000	     63.03998998	     -9.47778032	     -5.26474556	      0.41848799	      1.04852992	     -0.34768921	     15.02071467	      2.62470148	      9.74876807	    -25.16947495	      2.74930123	     40.90064686	      0.00000000	      0.63254912	    -20.11207007	      0.87114817	    -61.30211893	     23.09359933	     31.23590003	      0.00000000	      0.00000000	      0.00000000	      0.00000000
     10.00000000	     63.03762356	     -9.47413490	     -5.27162835	      0.41850641	      1.04852575	     -0.34771096	     14.96032747	      2.61483516	      9.74326513	    -25.30476900	      2.81179774	     40.93170469	      0.00000000	      0.63689462	    -20.10541874	      0.86088579	    -61.31419750	     23.09321331	     31.23794341	      0.00000000	      0.00000000	      0.00000000	      0.00000000
     10.01000000	     63.04009925	     -9.46623784	     -5.27285929	      0.41851291	      1.04853774	     -0.34773909	     14.89498531	      2.59297562	      9.72432764	    -25.49500074	      2.88780288	     40.98154779	      0.00000000	      0.63618507	    -20.09201255	      0.85734511	    -61.31774406	     23.08510802	     31.22940053	      0.00000000	      0.00000000	      0.00000000	      0.00000000
     10.02000000	     63.05345668	     -9.45610341	     -5.26949846	      0.41850662	      1.04857190	     -0.34776958	     14.81620491	      2.56201969	      9.69199141	    -25.74223624	      2.98285617	     41.04839425	      0.00000000	      0.61921670	    -20.07407340	      0.85568172	    -61.30742670	     23.07216423	     31.21536862	      0.00000000	      0.00000000	      0.00000000	      0.00000000
     10.03000000	     63.08177595	     -9.44525508	     -5.26354458	      0.41849625	      1.04863200	     -0.34780149	     14.71603829	      2.52356769	      9.65132422	    -26.04083714	      3.10242575	     41.13324959	      0.00000000	      0.57976365	    -20.05351571	      0.85182287	    -61.28532287	     23.05739624	     31.20098839	      0.00000000	      0.00000000	      0.00000000	      0.00000000
